<svg width="40" height="40" viewBox="0 0 40 40" fill="none" xmlns="http://www.w3.org/2000/svg">
<mask id="mask0_272_24590" style="mask-type:luminance" maskUnits="userSpaceOnUse" x="0" y="0" width="40" height="40">
<path d="M40 0H0V40H40V0Z" fill="white"/>
</mask>
<g mask="url(#mask0_272_24590)">
<path d="M25.4863 2.20624C24.6113 1.9854 23.7134 2.0854 22.753 2.31249C21.8093 2.5354 20.6551 2.92082 19.2218 3.3979L7.27593 7.37915C5.85301 7.85207 4.8176 8.19582 4.02593 8.85832C3.3301 9.43957 2.7926 10.1854 2.45926 11.0292C2.08218 11.9896 2.08218 13.0812 2.08426 14.5812V30.0542C2.08426 31.1771 2.08426 32.0937 2.14468 32.8396C2.20926 33.6125 2.3426 34.3083 2.67385 34.9604C3.19468 35.9792 4.02176 36.8083 5.0426 37.3271C5.6926 37.6583 6.39051 37.7917 7.16343 37.8562C7.90926 37.9167 8.82593 37.9167 9.94885 37.9167H28.3343C29.0238 37.9167 29.5843 37.3562 29.5843 36.6667V10.8646C29.5843 9.35624 29.5843 8.13749 29.4968 7.1729C29.4093 6.18957 29.2197 5.30832 28.7343 4.54582C27.9905 3.37915 26.828 2.54374 25.4863 2.20624Z" fill="#99CACD"/>
<path d="M25.4863 2.20624C24.6113 1.9854 23.7134 2.0854 22.753 2.31249C21.8093 2.5354 20.6551 2.92082 19.2218 3.3979L7.27593 7.37915C5.85301 7.85207 4.8176 8.19582 4.02593 8.85832C3.3301 9.43957 2.7926 10.1854 2.45926 11.0292C2.08218 11.9896 2.08218 13.0812 2.08426 14.5812V30.0542C2.08426 31.1771 2.08426 32.0937 2.14468 32.8396C2.20926 33.6125 2.3426 34.3083 2.67385 34.9604C3.19468 35.9792 4.02176 36.8083 5.0426 37.3271C5.6926 37.6583 6.39051 37.7917 7.16343 37.8562C7.90926 37.9167 8.82593 37.9167 9.94885 37.9167H28.3343C29.0238 37.9167 29.5843 37.3562 29.5843 36.6667V10.8646C29.5843 9.35624 29.5843 8.13749 29.4968 7.1729C29.4093 6.18957 29.2197 5.30832 28.7343 4.54582C27.9905 3.37915 26.828 2.54374 25.4863 2.20624Z" fill="url(#paint0_linear_272_24590)" fill-opacity="0.5"/>
<path d="M29.5853 36.6667C29.5853 37.3563 28.629 37.9167 27.9395 37.9167H29.6415C30.6499 37.9167 31.8853 37.9167 32.579 37.875C33.4582 37.8209 34.2395 37.6938 34.9603 37.3271C35.9811 36.8063 36.8082 35.9792 37.329 34.9584C37.6603 34.3084 37.7936 33.6105 37.8582 32.8375C37.9186 32.0917 37.9186 31.175 37.9186 30.0521V17.5167C37.9186 16.5771 37.9186 15.7875 37.8624 15.1563C37.802 14.5105 37.6728 13.8584 37.2936 13.2875C36.7478 12.4646 35.8999 11.8896 34.9311 11.6875C34.2582 11.548 33.602 11.6709 32.977 11.8584C32.3145 12.0563 31.9395 12.7521 32.1374 13.4146C32.3353 14.075 33.0332 14.45 33.6936 14.2521C34.179 14.1063 34.3561 14.1209 34.4228 14.1355C34.7457 14.2021 35.029 14.3938 35.2103 14.6688C35.2478 14.725 35.327 14.8834 35.3707 15.3834C35.4165 15.8855 35.4186 16.5605 35.4186 17.575V30C35.4186 31.1875 35.4186 32.0021 35.3665 32.6355C35.3165 33.2521 35.2228 33.5834 35.0999 33.825C34.8207 34.373 34.3749 34.8188 33.827 35.098C33.5582 35.2355 33.1811 35.3334 32.4249 35.3792C31.8186 35.4167 31.054 35.4167 30.002 35.4167H29.5853V36.6667Z" fill="#017B82"/>
<path d="M14.168 26.6667C12.7867 26.6667 11.668 27.7855 11.668 29.1667V37.9167H20.0013V29.1667C20.0013 27.7855 18.8826 26.6667 17.5013 26.6667H14.168Z" fill="#017B82"/>
</g>
<defs>
<linearGradient id="paint0_linear_272_24590" x1="3.36307" y1="2.08276" x2="36.9668" y2="25.4726" gradientUnits="userSpaceOnUse">
<stop offset="0.1" stop-color="white"/>
<stop offset="0.6" stop-color="white" stop-opacity="0"/>
</linearGradient>
</defs>
</svg>
