<svg width="40" height="40" viewBox="0 0 40 40" fill="none" xmlns="http://www.w3.org/2000/svg">
<mask id="mask0_271_21956" style="mask-type:luminance" maskUnits="userSpaceOnUse" x="0" y="0" width="40" height="40">
<path d="M40 0H0V40H40V0Z" fill="white"/>
</mask>
<g mask="url(#mask0_271_21956)">
<path d="M18.334 2.08325C9.35898 2.08325 2.08398 9.35825 2.08398 18.3333C2.08398 27.3083 9.35898 34.5833 18.334 34.5833C27.309 34.5833 34.584 27.3083 34.584 18.3333C34.584 9.35825 27.309 2.08325 18.334 2.08325Z" fill="#F9BDA6"/>
<path d="M18.334 2.08325C9.35898 2.08325 2.08398 9.35825 2.08398 18.3333C2.08398 27.3083 9.35898 34.5833 18.334 34.5833C27.309 34.5833 34.584 27.3083 34.584 18.3333C34.584 9.35825 27.309 2.08325 18.334 2.08325Z" fill="url(#paint0_linear_271_21956)" fill-opacity="0.5"/>
<path d="M28.2832 28.2832C28.7707 27.7936 29.5624 27.7936 30.0499 28.2832L37.5499 35.7832C38.0395 36.2707 38.0395 37.0624 37.5499 37.5499C37.0624 38.0395 36.2707 38.0395 35.7832 37.5499L28.2832 30.0499C27.7936 29.5624 27.7936 28.7707 28.2832 28.2832Z" fill="#F15A21"/>
</g>
<defs>
<linearGradient id="paint0_linear_271_21956" x1="3.59561" y1="2.08325" x2="35.9413" y2="31.42" gradientUnits="userSpaceOnUse">
<stop offset="0.1" stop-color="white"/>
<stop offset="0.6" stop-color="white" stop-opacity="0"/>
</linearGradient>
</defs>
</svg>
