<svg width="40" height="40" viewBox="0 0 40 40" fill="none" xmlns="http://www.w3.org/2000/svg">
<mask id="mask0_271_20454" style="mask-type:luminance" maskUnits="userSpaceOnUse" x="0" y="0" width="40" height="40">
<path d="M40 0H0V40H40V0Z" fill="white"/>
</mask>
<g mask="url(#mask0_271_20454)">
<path d="M18.7738 16.4913C15.7529 17.4268 13.3879 18.9596 12.0762 20.8705C6.78966 20.5321 2 18.5814 2 14.9984V13.6448C4.60351 15.695 8.77708 16.8894 13.9245 16.8894C15.5492 16.8944 17.1739 16.76 18.7738 16.4913Z" fill="#A18DE2"/>
<path d="M18.7738 16.4913C15.7529 17.4268 13.3879 18.9596 12.0762 20.8705C6.78966 20.5321 2 18.5814 2 14.9984V13.6448C4.60351 15.695 8.77708 16.8894 13.9245 16.8894C15.5492 16.8944 17.1739 16.76 18.7738 16.4913Z" fill="url(#paint0_linear_271_20454)" fill-opacity="0.5"/>
</g>
<defs>
<linearGradient id="paint0_linear_271_20454" x1="2.78018" y1="13.6448" x2="8.38061" y2="25.4362" gradientUnits="userSpaceOnUse">
<stop offset="0.1" stop-color="white"/>
<stop offset="0.6" stop-color="white" stop-opacity="0"/>
</linearGradient>
</defs>
</svg>
