<svg width="40" height="40" viewBox="0 0 40 40" fill="none" xmlns="http://www.w3.org/2000/svg">
<mask id="mask0_290_11458" style="mask-type:luminance" maskUnits="userSpaceOnUse" x="0" y="0" width="40" height="40">
<path d="M40 0H0V40H40V0Z" fill="white"/>
</mask>
<g mask="url(#mask0_290_11458)">
<path d="M2.0835 23.3333V24.1667C2.0835 28.0792 5.25433 31.25 9.16683 31.25H15.4168V35.4167H11.6668C10.9772 35.4167 10.4168 35.9771 10.4168 36.6667C10.4168 37.3563 10.9772 37.9167 11.6668 37.9167H28.3335C29.0231 37.9167 29.5835 37.3563 29.5835 36.6667C29.5835 35.9771 29.0231 35.4167 28.3335 35.4167H24.5835V31.25H30.8335C34.746 31.25 37.9168 28.0792 37.9168 24.1667V23.3333H2.0835Z" fill="#6341CF"/>
</g>
</svg>
