<svg width="40" height="40" viewBox="0 0 40 40" fill="none" xmlns="http://www.w3.org/2000/svg">
<mask id="mask0_290_10695" style="mask-type:luminance" maskUnits="userSpaceOnUse" x="0" y="0" width="40" height="40">
<path d="M40 0H0V40H40V0Z" fill="white"/>
</mask>
<g mask="url(#mask0_290_10695)">
<path d="M30.1939 5.01747L27.4394 9.13403H12.3908L9.63639 5.01747C9.00376 4.07326 9.35087 2.84929 10.409 2.28476C10.7561 2.09492 11.1536 2 11.5622 2H28.268C29.4996 2 30.5074 2.88426 30.513 3.98834C30.513 4.35303 30.4066 4.70773 30.1939 5.01747Z" fill="#017B82"/>
<path d="M37.83 25.8459C37.83 29.8425 35.5906 37.8359 19.915 37.8359C4.23938 37.8359 2 29.8425 2 25.8459C2 17.8526 8.71813 11.8576 12.3907 9H27.4393C31.1119 11.8576 37.83 17.8526 37.83 25.8459Z" fill="#99CACD"/>
<path d="M37.83 25.8459C37.83 29.8425 35.5906 37.8359 19.915 37.8359C4.23938 37.8359 2 29.8425 2 25.8459C2 17.8526 8.71813 11.8576 12.3907 9H27.4393C31.1119 11.8576 37.83 17.8526 37.83 25.8459Z" fill="url(#paint0_linear_290_10695)" fill-opacity="0.5"/>
</g>
<defs>
<linearGradient id="paint0_linear_290_10695" x1="3.66651" y1="9" x2="32.2976" y2="41.2662" gradientUnits="userSpaceOnUse">
<stop offset="0.1" stop-color="white"/>
<stop offset="0.6" stop-color="white" stop-opacity="0"/>
</linearGradient>
</defs>
</svg>
