<svg width="40" height="40" viewBox="0 0 40 40" fill="none" xmlns="http://www.w3.org/2000/svg">
<mask id="mask0_281_9893" style="mask-type:luminance" maskUnits="userSpaceOnUse" x="0" y="0" width="40" height="40">
<path d="M40 0H0V40H40V0Z" fill="white"/>
</mask>
<g mask="url(#mask0_281_9893)">
<path d="M9.05568 11.0232C9.54673 10.9107 10.036 11.2176 10.1485 11.7087L11.2932 16.706L12.9191 13.1161C13.0669 12.7899 13.3919 12.5803 13.75 12.5803C14.1082 12.5803 14.4332 12.7899 14.5809 13.1161L16.2068 16.706L17.3515 11.7087C17.464 11.2176 17.9533 10.9107 18.4443 11.0232C18.9354 11.1357 19.2423 11.625 19.1298 12.116L18.7682 13.6946H19.5878C20.0916 13.6946 20.5 14.103 20.5 14.6067C20.5 15.1105 20.0916 15.5189 19.5878 15.5189H18.3503L17.381 19.7501C17.2936 20.1317 16.9725 20.415 16.583 20.4541C16.1935 20.4932 15.8225 20.2794 15.661 19.9228L13.75 15.7034L11.839 19.9228C11.6775 20.2794 11.3065 20.4932 10.917 20.4541C10.5275 20.415 10.2064 20.1317 10.119 19.7501L9.14973 15.5189H7.91216C7.40839 15.5189 7 15.1105 7 14.6067C7 14.103 7.40839 13.6946 7.91216 13.6946H8.73183L8.37022 12.116C8.25774 11.625 8.56463 11.1357 9.05568 11.0232Z" fill="#0055A2"/>
</g>
</svg>
