<svg width="40" height="40" viewBox="0 0 40 40" fill="none" xmlns="http://www.w3.org/2000/svg">
<mask id="mask0_271_20454" style="mask-type:luminance" maskUnits="userSpaceOnUse" x="0" y="0" width="40" height="40">
<path d="M40 0H0V40H40V0Z" fill="white"/>
</mask>
<g mask="url(#mask0_271_20454)">
<path d="M25.8483 33.3712C20.8599 33.3712 16.6068 32.0574 13.9238 29.9275V31.8782C13.9238 35.8394 19.8861 37.83 25.8483 37.83C31.8105 37.83 37.7728 35.8394 37.7728 31.8782V29.9275C35.0898 32.0574 30.8367 33.3712 25.8483 33.3712Z" fill="white"/>
<path fill-rule="evenodd" clip-rule="evenodd" d="M13.9805 23.9518C13.9805 20.6673 19.3266 18 25.9049 18C32.4833 18 37.8294 20.6673 37.8294 23.9518C37.8294 27.2362 32.4833 29.9035 25.9049 29.9035C19.3266 29.9035 13.9805 27.2362 13.9805 23.9518ZM21.6998 22.2997C21.5667 22.092 20.9877 21.9623 20.4067 22.0098C19.8256 22.0574 19.4624 22.2643 19.5956 22.472L20.0234 23.1395H19.0535C18.4574 23.1395 17.9742 23.3122 17.9742 23.5253C17.9742 23.7383 18.4574 23.911 19.0535 23.911H20.518L21.6649 25.7004C21.7683 25.8617 22.1483 25.9815 22.6092 25.9981C23.0701 26.0146 23.5091 25.9242 23.7003 25.7734L25.9615 23.9891L28.2228 25.7734C28.4139 25.9242 28.8529 26.0146 29.3138 25.9981C29.7747 25.9815 30.1547 25.8617 30.2581 25.7004L31.4051 23.911H32.8695C33.4656 23.911 33.9489 23.7383 33.9489 23.5253C33.9489 23.3122 33.4656 23.1395 32.8695 23.1395H31.8996L32.3275 22.472C32.4606 22.2643 32.0974 22.0574 31.5164 22.0098C30.9353 21.9623 30.3564 22.092 30.2232 22.2997L28.8687 24.413L26.9448 22.8949C26.7699 22.7569 26.3854 22.6683 25.9616 22.6683C25.5378 22.6683 25.1532 22.7569 24.9783 22.8949L23.0544 24.413L21.6998 22.2997Z" fill="white"/>
</g>
</svg>
