<svg width="40" height="40" viewBox="0 0 40 40" fill="none" xmlns="http://www.w3.org/2000/svg">
<mask id="mask0_289_12595" style="mask-type:luminance" maskUnits="userSpaceOnUse" x="0" y="0" width="40" height="40">
<path d="M40 0H0V40H40V0Z" fill="white"/>
</mask>
<g mask="url(#mask0_289_12595)">
<path d="M32.5002 7.08331C35.4918 7.08331 37.9168 9.50831 37.9168 12.5V30.8333C37.9168 33.825 35.4918 36.25 32.5002 36.25H7.50016C4.5085 36.25 2.0835 33.825 2.0835 30.8333V12.5C2.0835 9.50831 4.5085 7.08331 7.50016 7.08331H32.5002Z" fill="#F9BDA6"/>
<path d="M32.5002 7.08331C35.4918 7.08331 37.9168 9.50831 37.9168 12.5V30.8333C37.9168 33.825 35.4918 36.25 32.5002 36.25H7.50016C4.5085 36.25 2.0835 33.825 2.0835 30.8333V12.5C2.0835 9.50831 4.5085 7.08331 7.50016 7.08331H32.5002Z" fill="url(#paint0_linear_289_12595)" fill-opacity="0.5"/>
<path d="M31.6667 14.5833C32.3563 14.5833 32.9167 15.1437 32.9167 15.8333C32.9167 16.5229 32.3563 17.0833 31.6667 17.0833H25C24.3104 17.0833 23.75 16.5229 23.75 15.8333C23.75 15.1437 24.3104 14.5833 25 14.5833H31.6667Z" fill="#F15A21"/>
<path d="M32.9167 21.6666C32.9167 20.977 32.3563 20.4166 31.6667 20.4166H25C24.3104 20.4166 23.75 20.977 23.75 21.6666C23.75 22.3562 24.3104 22.9166 25 22.9166H31.6667C32.3563 22.9166 32.9167 22.3562 32.9167 21.6666Z" fill="#F15A21"/>
<path d="M31.6667 26.25C32.3563 26.25 32.9167 26.8104 32.9167 27.5C32.9167 28.1896 32.3563 28.75 31.6667 28.75H25C24.3104 28.75 23.75 28.1896 23.75 27.5C23.75 26.8104 24.3104 26.25 25 26.25H31.6667Z" fill="#F15A21"/>
</g>
<defs>
<linearGradient id="paint0_linear_289_12595" x1="3.75016" y1="7.08331" x2="32.7469" y2="39.3939" gradientUnits="userSpaceOnUse">
<stop offset="0.1" stop-color="white"/>
<stop offset="0.6" stop-color="white" stop-opacity="0"/>
</linearGradient>
</defs>
</svg>
