<svg width="40" height="40" viewBox="0 0 40 40" fill="none" xmlns="http://www.w3.org/2000/svg">
<mask id="mask0_272_26690" style="mask-type:luminance" maskUnits="userSpaceOnUse" x="0" y="0" width="40" height="40">
<path d="M40 0H0V40H40V0Z" fill="white"/>
</mask>
<g mask="url(#mask0_272_26690)">
<path d="M14.5125 18.7781C15.1127 18.6407 15.7106 19.0158 15.8481 19.6159L17.2473 25.7238L19.2345 21.3362C19.415 20.9374 19.8123 20.6812 20.25 20.6812C20.6878 20.6812 21.085 20.9374 21.2656 21.3362L23.2527 25.7237L24.6518 19.6159C24.7893 19.0158 25.3873 18.6407 25.9875 18.7781C26.5877 18.9156 26.9628 19.5136 26.8253 20.1138L26.3833 22.0432H27.3851C28.0009 22.0432 28.5 22.5423 28.5 23.158C28.5 23.7737 28.0009 24.2729 27.3851 24.2729H25.8725L24.6879 29.4444C24.5811 29.9107 24.1886 30.2569 23.7125 30.3047C23.2365 30.3525 22.783 30.0912 22.5856 29.6554L20.25 24.4984L17.9144 29.6554C17.717 30.0912 17.2635 30.3525 16.7875 30.3047C16.3114 30.2569 15.9189 29.9107 15.8121 29.4444L14.6274 24.2729H13.1149C12.4991 24.2729 12 23.7737 12 23.158C12 22.5423 12.4991 22.0432 13.1149 22.0432H14.1167L13.6747 20.1138C13.5372 19.5136 13.9123 18.9156 14.5125 18.7781Z" fill="white"/>
</g>
</svg>
