<svg width="36" height="36" viewBox="0 0 36 36" fill="none" xmlns="http://www.w3.org/2000/svg">
<path fill-rule="evenodd" clip-rule="evenodd" d="M19.5 1.5C19.5 0.671573 18.8284 0 18 0C17.1716 0 16.5 0.671573 16.5 1.5V5.5H16C15.0681 5.5 14.285 6.13739 14.063 7H13C7.68559 7 3.21313 10.6049 1.89449 15.5027C0.838968 15.5576 0 16.4308 0 17.5V21.5C0 22.5692 0.838968 23.4424 1.89449 23.4973C3.21313 28.3951 7.68559 32 13 32H23C28.3144 32 32.7869 28.3951 34.1055 23.4973C35.161 23.4424 36 22.5692 36 21.5V17.5C36 16.4308 35.161 15.5576 34.1055 15.5027C32.7869 10.6049 28.3144 7 23 7H21.937C21.715 6.13739 20.9319 5.5 20 5.5H19.5V1.5ZM18 10H13C8.30558 10 4.5 13.8056 4.5 18.5V20.5C4.5 25.1944 8.30558 29 13 29H23C27.6944 29 31.5 25.1944 31.5 20.5V18.5C31.5 13.8056 27.6944 10 23 10H18ZM13 17C13.8284 17 14.5 17.6716 14.5 18.5V20.5C14.5 21.3284 13.8284 22 13 22C12.1716 22 11.5 21.3284 11.5 20.5V18.5C11.5 17.6716 12.1716 17 13 17ZM24.5 18.5C24.5 17.6716 23.8284 17 23 17C22.1716 17 21.5 17.6716 21.5 18.5V20.5C21.5 21.3284 22.1716 22 23 22C23.8284 22 24.5 21.3284 24.5 20.5V18.5Z" fill="white"/>
</svg>
