<svg width="40" height="40" viewBox="0 0 40 40" fill="none" xmlns="http://www.w3.org/2000/svg">
<mask id="mask0_1407_3923" style="mask-type:luminance" maskUnits="userSpaceOnUse" x="0" y="0" width="40" height="40">
<path d="M40 0H0V40H40V0Z" fill="white"/>
</mask>
<g mask="url(#mask0_1407_3923)">
<path d="M2.08331 23.3333V24.1667C2.08331 28.0792 5.25415 31.25 9.16665 31.25H15.4166V35.4167H11.6666C10.9771 35.4167 10.4166 35.9771 10.4166 36.6667C10.4166 37.3562 10.9771 37.9167 11.6666 37.9167H28.3333C29.0229 37.9167 29.5833 37.3562 29.5833 36.6667C29.5833 35.9771 29.0229 35.4167 28.3333 35.4167H24.5833V31.25H30.8333C34.7458 31.25 37.9166 28.0792 37.9166 24.1667V23.3333H2.08331Z" fill="#0055A2"/>
</g>
</svg>
