<svg width="40" height="40" viewBox="0 0 40 40" fill="none" xmlns="http://www.w3.org/2000/svg">
<mask id="mask0_289_13355" style="mask-type:luminance" maskUnits="userSpaceOnUse" x="0" y="0" width="40" height="40">
<path d="M40 0H0V40H40V0Z" fill="white"/>
</mask>
<g mask="url(#mask0_289_13355)">
<path d="M28.3333 33.2604C28.3333 36.5833 30.0937 37.8333 31.25 37.8333H7.08333C3.17083 37.8333 0 34.6625 0 30.75V7.41667C0 4.425 2.425 2 5.41667 2H22.9167C25.9042 2 28.3333 4.4125 28.3333 7.40833V33.2604Z" fill="#99BBDA"/>
<path d="M28.3333 33.2604C28.3333 36.5833 30.0937 37.8333 31.25 37.8333H7.08333C3.17083 37.8333 0 34.6625 0 30.75V7.41667C0 4.425 2.425 2 5.41667 2H22.9167C25.9042 2 28.3333 4.4125 28.3333 7.40833V33.2604Z" fill="url(#paint0_linear_289_13355)" fill-opacity="0.5"/>
<path d="M8.75 25C8.75 24.3104 9.31042 23.75 10 23.75H22.5C23.1896 23.75 23.75 24.3104 23.75 25C23.75 25.6896 23.1896 26.25 22.5 26.25H10C9.31042 26.25 8.75 25.6896 8.75 25Z" fill="#0055A2"/>
<path d="M8.75 30C8.75 29.3104 9.31042 28.75 10 28.75H16.6667C17.3563 28.75 17.9167 29.3104 17.9167 30C17.9167 30.6896 17.3563 31.25 16.6667 31.25H10C9.31042 31.25 8.75 30.6896 8.75 30Z" fill="#0055A2"/>
<path d="M30.4165 33.3437C30.4165 36.525 32.0311 37.8062 33.1811 37.9104C35.8207 37.7708 37.9165 35.5895 37.9165 32.9166V22.5C37.9165 21.35 36.9832 20.4166 35.8332 20.4166H30.4165V33.3437Z" fill="#0055A2"/>
</g>
<defs>
<linearGradient id="paint0_linear_289_13355" x1="1.45349" y1="2" x2="36.3237" y2="29.5812" gradientUnits="userSpaceOnUse">
<stop offset="0.1" stop-color="white"/>
<stop offset="0.6" stop-color="white" stop-opacity="0"/>
</linearGradient>
</defs>
</svg>
